<?xml version="1.0" standalone="no"?>
<!DOCTYPE svg PUBLIC "-//W3C//DTD SVG 20010904//EN"
 "http://www.w3.org/TR/2001/REC-SVG-20010904/DTD/svg10.dtd">
<svg version="1.0" xmlns="http://www.w3.org/2000/svg"
 width="500.000000pt" height="500.000000pt" viewBox="0 0 500.000000 500.000000"
 preserveAspectRatio="xMidYMid meet">
<metadata>
Created by potrace 1.14, written by Peter Selinger 2001-2017
</metadata>
<g transform="translate(0.000000,500.000000) scale(0.100000,-0.100000)"
fill="#000000" stroke="none">
<path d="M0 2500 l0 -2500 2500 0 2500 0 0 2500 0 2500 -2500 0 -2500 0 0
-2500z m2725 1681 c17 -5 64 -17 105 -26 225 -51 423 -149 655 -324 69 -52
165 -141 165 -154 0 -4 24 -38 54 -75 29 -37 73 -99 97 -138 24 -38 50 -79 57
-90 30 -46 95 -189 113 -249 6 -22 15 -49 19 -60 58 -154 88 -415 69 -593 -12
-118 -55 -313 -89 -407 -42 -116 -215 -408 -289 -487 -17 -18 -31 -37 -31 -43
0 -11 -196 -188 -250 -225 -19 -13 -36 -28 -38 -32 -2 -4 -8 -8 -12 -8 -5 0
-47 -24 -92 -53 -148 -95 -244 -131 -443 -170 -152 -30 -361 -52 -408 -43 -17
3 -75 10 -127 16 -52 6 -111 15 -130 20 -19 5 -64 14 -100 21 -113 20 -190 50
-345 137 -155 86 -242 151 -359 267 -131 130 -217 250 -315 437 -100 194 -127
296 -152 578 -8 103 -7 153 6 285 26 244 26 249 36 260 5 5 9 21 9 36 0 15 5
31 10 34 6 3 10 14 10 25 0 36 75 197 138 295 73 112 116 171 170 230 20 22
59 66 85 97 26 32 59 63 71 70 13 7 66 43 117 79 52 36 110 74 129 85 19 10
37 21 40 24 16 16 186 93 245 111 22 6 49 15 60 20 11 4 31 10 45 13 118 29
176 40 245 46 94 10 387 3 430 -9z"/>
<path d="M2255 4108 c-33 -6 -85 -17 -115 -25 -30 -8 -73 -19 -95 -25 -22 -5
-48 -14 -57 -19 -10 -5 -25 -9 -33 -9 -8 0 -23 -4 -33 -9 -9 -5 -55 -27 -102
-50 -102 -50 -164 -85 -207 -117 -17 -13 -35 -24 -38 -24 -24 0 -245 -192
-245 -213 0 -5 -17 -28 -37 -52 -93 -105 -253 -377 -253 -428 0 -9 -4 -19 -10
-22 -5 -3 -10 -16 -10 -29 0 -12 -4 -26 -8 -31 -5 -6 -14 -35 -21 -65 -6 -30
-18 -80 -26 -110 -25 -101 -37 -276 -25 -385 10 -102 35 -231 51 -273 5 -13 9
-34 9 -47 0 -13 5 -27 10 -30 6 -3 10 -17 10 -30 0 -13 5 -27 10 -30 6 -3 10
-13 10 -21 0 -17 20 -59 75 -159 96 -175 225 -339 347 -440 189 -158 384 -273
538 -315 25 -7 63 -18 85 -25 172 -55 453 -65 665 -24 68 14 282 79 295 91 5
4 14 8 21 8 7 0 41 16 76 36 34 20 79 45 98 56 96 55 290 215 363 298 87 100
220 318 276 453 15 35 53 148 63 187 59 223 56 545 -7 765 -10 33 -20 70 -22
83 -3 12 -9 25 -14 28 -5 3 -9 12 -9 20 0 37 -78 187 -157 301 -34 50 -63 95
-63 99 0 4 -21 32 -47 63 -27 31 -55 64 -63 74 -26 32 -163 143 -205 167 -22
12 -54 33 -72 46 -17 13 -35 24 -38 24 -4 0 -25 13 -48 28 -46 30 -132 73
-187 92 -19 7 -44 16 -55 20 -11 4 -40 13 -65 20 -25 6 -59 16 -77 21 -117 36
-412 50 -558 27z m1235 -616 c0 -4 -13 -29 -30 -55 -16 -26 -30 -52 -30 -57 0
-6 -4 -10 -8 -10 -4 0 -15 -12 -25 -27 -42 -69 32 -62 -773 -69 -515 -5 -731
-10 -736 -18 -4 -6 -8 -344 -8 -752 l0 -740 -48 -45 c-26 -24 -70 -62 -97 -84
-28 -21 -53 -44 -57 -49 -4 -6 -9 -8 -12 -5 -4 4 -10 1612 -7 1857 l1 62 915
0 c503 0 915 -4 915 -8z m-950 -637 l5 -190 329 -3 328 -2 -6 -33 c-4 -17 -22
-56 -41 -84 -19 -29 -35 -57 -35 -61 0 -5 -12 -21 -26 -35 l-26 -27 -262 -2
-261 -3 -3 -452 -2 -452 -73 -58 c-39 -31 -74 -59 -77 -63 -21 -23 -73 -59
-81 -54 -5 3 -9 353 -9 859 l0 854 38 3 c20 2 73 1 117 -2 l80 -5 5 -190z"/>
</g>
</svg>
